<mxfile host="app.diagrams.net" modified="2021-09-01T19:53:50.601Z" agent="5.0 (Windows NT 10.0; Win64; x64) AppleWebKit/537.36 (KHTML, like Gecko) Chrome/92.0.4515.107 Safari/537.36" etag="7Ow03JwlAWGLF5knJh1G" version="14.9.8" type="github">
  <diagram id="tMchySv9qtg7JtD7jRek" name="Page-1">
    <mxGraphModel dx="1167" dy="713" grid="0" gridSize="10" guides="1" tooltips="1" connect="1" arrows="1" fold="1" page="1" pageScale="1" pageWidth="1200" pageHeight="1920" math="0" shadow="0">
      <root>
        <mxCell id="0" />
        <mxCell id="1" parent="0" />
        <mxCell id="K_BWz5d0Bac2_o4fm06g-1" value="" style="shape=image;verticalLabelPosition=bottom;labelBackgroundColor=#ffffff;verticalAlign=top;aspect=fixed;imageAspect=0;image=https://res.cloudinary.com/practicaldev/image/fetch/s--cL1C9OOt--/c_limit%2Cf_auto%2Cfl_progressive%2Cq_auto%2Cw_880/https://dev-to-uploads.s3.amazonaws.com/uploads/articles/7onenmdq3xelj6jwutso.png;" vertex="1" parent="1">
          <mxGeometry x="170" y="130" width="795.04" height="370" as="geometry" />
        </mxCell>
        <mxCell id="K_BWz5d0Bac2_o4fm06g-3" value="" style="text;html=1;fillColor=#d5e8d4;align=center;verticalAlign=middle;whiteSpace=wrap;rounded=0;sketch=1;" vertex="1" parent="1">
          <mxGeometry x="665" y="211" width="23" height="20" as="geometry" />
        </mxCell>
        <mxCell id="K_BWz5d0Bac2_o4fm06g-4" value="" style="text;html=1;fillColor=#d5e8d4;align=center;verticalAlign=middle;whiteSpace=wrap;rounded=0;sketch=1;" vertex="1" parent="1">
          <mxGeometry x="665" y="213" width="23" height="20" as="geometry" />
        </mxCell>
        <mxCell id="K_BWz5d0Bac2_o4fm06g-2" value="&lt;font style=&quot;font-size: 15px&quot;&gt;&lt;b&gt;5&lt;/b&gt;&lt;/font&gt;" style="text;html=1;fillColor=#d5e8d4;align=center;verticalAlign=middle;whiteSpace=wrap;rounded=0;sketch=1;gradientColor=#ffffff;" vertex="1" parent="1">
          <mxGeometry x="662" y="211" width="23" height="20" as="geometry" />
        </mxCell>
        <mxCell id="K_BWz5d0Bac2_o4fm06g-5" value="" style="shape=image;verticalLabelPosition=bottom;labelBackgroundColor=#ffffff;verticalAlign=top;aspect=fixed;imageAspect=0;image=https://res.cloudinary.com/practicaldev/image/fetch/s--Wq-b-Naj--/c_limit%2Cf_auto%2Cfl_progressive%2Cq_auto%2Cw_880/https://dev-to-uploads.s3.amazonaws.com/uploads/articles/cph8n96anxdnubiz9hfl.png;" vertex="1" parent="1">
          <mxGeometry x="185" y="557" width="883.55" height="401" as="geometry" />
        </mxCell>
        <mxCell id="K_BWz5d0Bac2_o4fm06g-6" value="&lt;font style=&quot;font-size: 15px&quot;&gt;&lt;b&gt;5&lt;/b&gt;&lt;/font&gt;" style="text;html=1;fillColor=#d5e8d4;align=center;verticalAlign=middle;whiteSpace=wrap;rounded=0;sketch=1;gradientColor=#ffffff;" vertex="1" parent="1">
          <mxGeometry x="736" y="643" width="28" height="25" as="geometry" />
        </mxCell>
      </root>
    </mxGraphModel>
  </diagram>
</mxfile>
